# xmcd CD database file
#
# Track frame offsets:
#	150
#	5767
#	30653
#	63457
#
# Disc length: 1117 seconds
#
# Revision: 0
# Processed by: cddbd v1.5.1PL0 Copyright (c) Steve Scherf et al.
# Submitted via: CDex 1.51
#
DISCID=2d045b04
DTITLE=ぺんぎんや - quartza-?
DYEAR=1900
DGENRE=J ポップ
TTITLE0=For tunate
TTITLE1=凍てつく森
TTITLE2=Message
TTITLE3=たそがれの庭
EXTD=
EXTT0=
EXTT1=
EXTT2=
EXTT3=
PLAYORDER=
